<?xml version="1.0" encoding="utf-8"?>
<!DOCTYPE svg PUBLIC "-//W3C//DTD SVG 1.0//EN" "http://www.w3.org/TR/2001/REC-SVG-20010904/DTD/svg10.dtd">
<svg version="1.0" xmlns="http://www.w3.org/2000/svg" width="209px" height="237px" viewBox="0 0 209 237" preserveAspectRatio="xMidYMid meet">
 <g fill="#ffffff">
  <path d="M0 118.43 l0 -118.43 104.50 0 104.50 0 0 118.43 0 118.43 -104.50 0 -104.50 0 0 -118.43z m149.52 106.35 c3.03 -0.52 5.31 -1.59 10.71 -4.99 0.78 -0.50 1.63 -1 1.85 -1.15 1.39 -0.85 5.75 -3.55 6.71 -4.18 1.46 -0.94 12.89 -8.01 13.76 -8.51 0.37 -0.20 1.92 -1.18 3.44 -2.13 1.55 -0.98 2.85 -1.79 2.90 -1.79 0.13 0 2.81 -1.87 4.25 -2.96 1.55 -1.18 2.22 -1.98 3.09 -3.66 0.57 -1.11 0.67 -1.57 0.67 -2.85 0 -2.76 -1.39 -4.64 -5.07 -6.79 -4.81 -2.85 -8.93 -6.62 -10.38 -9.51 l-0.76 -1.52 0.07 -3.94 0.07 -3.92 -0.70 -1.44 c-0.44 -0.87 -1.15 -1.85 -1.81 -2.46 -1.35 -1.26 -1.35 -1.46 -0.24 -4.83 1.31 -3.92 1.63 -6.18 1.48 -10.62 -0.17 -5.16 -1.04 -8.95 -3.68 -16.02 -3.79 -10.17 -8.40 -18.11 -17.20 -29.61 -2.44 -3.18 -5.18 -6.79 -6.10 -8.06 -6.31 -8.71 -10.38 -17.59 -12.41 -27.15 -0.39 -1.85 -0.46 -3.29 -0.61 -10.84 -0.17 -9.32 -0.30 -10.75 -1.61 -15.85 -1.20 -4.68 -3.64 -10.10 -6.12 -13.54 -4.18 -5.83 -9.10 -9.51 -15.81 -11.82 -7.90 -2.72 -14.91 -2.81 -22.66 -0.26 -7.90 2.59 -12.93 6.57 -15.94 12.56 -1.85 3.70 -2.53 6.55 -3.29 14.11 -0.78 7.75 -0.65 14 0.54 25.25 1.57 14.72 1.48 16.76 -0.81 21.34 -1.42 2.79 -2.92 4.90 -8.45 11.76 -7.75 9.67 -10.84 15.09 -15.33 27.10 -2.53 6.81 -4.16 10.38 -7.23 15.89 -4.40 7.92 -4.79 9.23 -3.59 12.54 0.30 0.85 0.57 1.81 0.57 2.13 0 0.59 -1.83 4.44 -3.22 6.77 -2 3.37 -5.14 6.88 -6.90 7.79 -1.57 0.78 -2.48 0.98 -6.23 1.35 -5.25 0.52 -7.12 1.13 -8.90 2.94 -2.22 2.20 -2.59 4.25 -1.57 8.38 1.11 4.33 1.57 7.16 1.57 9.43 0 2.50 -0.33 4.09 -1.55 7.84 -0.76 2.37 -0.87 2.96 -0.78 4.09 0.20 2.63 2.26 5.36 5.01 6.62 0.76 0.37 3.35 1.09 6.03 1.72 2.57 0.59 8.32 1.94 12.74 2.96 4.44 1.04 10.36 2.42 13.17 3.07 2.81 0.65 7.38 1.72 10.12 2.37 6.47 1.52 8.47 1.85 11.02 1.85 5.57 0 10.80 -2.96 13.61 -7.73 0.52 -0.89 0.59 -0.94 2.76 -1.52 2.05 -0.57 2.68 -0.61 8.10 -0.78 3.24 -0.11 7.84 -0.35 10.23 -0.52 9.95 -0.72 13.63 -0.65 21.23 0.46 4.35 0.61 5.44 0.87 5.44 1.24 0 0.48 1.50 3.22 2.39 4.40 3.09 4.01 9.43 6.07 15.41 5.01z"/>
  <path d="M89.87 204.75 c-1.28 -0.15 -3.09 -0.46 -4.05 -0.65 l-1.72 -0.37 -0.59 -1.24 c-0.81 -1.61 -1.74 -3.18 -4.31 -7.10 -2.63 -4.01 -2.70 -4.35 -0.96 -5.20 1.61 -0.78 2.85 -2.18 3.29 -3.70 0.44 -1.46 0.33 -2.16 -0.61 -3.90 -0.85 -1.63 -2.50 -3.18 -8.01 -7.45 -5.49 -4.31 -11.47 -9.23 -14.78 -12.17 -1.37 -1.24 -2.79 -2.48 -3.11 -2.76 -0.54 -0.48 -0.63 -0.76 -0.91 -2.92 -0.46 -3.51 -0.41 -9.60 0.09 -13.06 1.26 -8.47 3.70 -15.50 7.97 -22.86 2.33 -4.01 3.24 -6.12 5.36 -12.26 3.07 -8.97 5.18 -13.02 10.01 -19.16 l1.07 -1.37 0 -6.20 0 -6.18 0.67 0 c0.96 0 4.07 2.39 7.79 5.99 2.35 2.24 3.31 3.03 4.40 3.55 2.48 1.15 5.05 1.52 7.69 1.13 3.57 -0.54 6.62 -1.92 11.67 -5.25 2.85 -1.89 3.70 -2.33 5.55 -2.92 2.53 -0.81 3.72 -1.37 4.77 -2.29 0.54 -0.50 0.94 -0.65 1.61 -0.65 0.85 0 0.87 0.02 1.33 1.13 0.24 0.63 0.72 2 1.07 3.03 0.35 1.02 1.31 3.09 2.16 4.57 2.83 4.96 3.88 7.34 5.88 13.13 2.07 6.03 3.31 8.95 6.88 16.13 1.92 3.83 3.74 7.66 4.07 8.49 1.96 4.96 3.66 14.02 4.16 22.03 0.28 4.72 0.02 10.32 -0.63 13.56 l-0.37 1.85 -2.50 0 c-2.33 0 -2.59 0.04 -3.79 0.63 -2.55 1.24 -4.11 3.48 -4.51 6.40 -0.11 0.81 -0.44 3.92 -0.74 6.90 -0.33 3 -0.91 7.95 -1.33 10.99 l-0.74 5.55 -2.13 2.09 c-4.18 4.05 -8.38 6.77 -13.93 8.99 -4.53 1.83 -8.95 2.96 -13.72 3.51 -3.37 0.39 -10.73 0.39 -14.02 0z"/>
  <path d="M153.48 159.41 c0 -1.07 0.20 -1.74 1.28 -4.22 2.16 -4.94 3.18 -8.38 3.81 -12.82 1.04 -7.10 -0.41 -13.45 -4.46 -19.53 -1.72 -2.57 -5.88 -6.57 -9.08 -8.71 -1.46 -1 -2.81 -2.05 -3 -2.33 -0.17 -0.28 -0.30 -0.83 -0.26 -1.24 0.07 -0.67 0.11 -0.72 1 -0.78 1.63 -0.13 5.22 1.85 8.69 4.79 4.99 4.22 8.73 10.49 9.97 16.72 0.78 3.96 0.63 10.78 -0.37 15.57 -0.81 3.96 -2.72 8.90 -4.72 12.30 -0.91 1.52 -0.91 1.52 -1.87 1.52 l-0.98 0 0 -1.26z"/>
  <path d="M80.44 65.07 c-1.33 -1.59 -2.72 -5.27 -3.13 -8.34 -0.30 -2.18 -0.30 -6.25 0 -8.25 0.57 -3.66 2.48 -6.84 4.64 -7.66 1.46 -0.57 4.90 -0.39 6.31 0.30 2.42 1.20 4.77 4.62 5.46 7.97 0.33 1.59 0.41 5.07 0.20 7.53 -0.15 1.42 -0.15 1.46 -1.04 1.92 -1.22 0.63 -2.31 1.28 -2.94 1.79 -0.30 0.24 -0.87 0.41 -1.35 0.41 -0.83 0 -0.85 -0.02 -0.85 -0.74 0 -0.39 0.15 -1.15 0.35 -1.68 1 -2.76 -0.20 -6.64 -2.46 -7.95 -0.94 -0.57 -0.94 -0.57 -1.74 -0.15 -2.92 1.42 -2.98 6.90 -0.11 9.71 0.48 0.46 1.24 0.96 1.70 1.13 0.74 0.24 0.85 0.37 0.91 1.02 0.07 0.70 -0.02 0.78 -2.02 2.20 -2.44 1.70 -3.03 1.83 -3.92 0.78z"/>
  <path d="M116.43 64.29 l-3.22 -1 0 -0.72 c0 -0.63 0.13 -0.78 0.83 -1.15 3.81 -1.94 4.68 -7.08 1.70 -10.21 -0.85 -0.91 -2.09 -1.57 -2.98 -1.57 -1.07 0 -2.72 1.02 -3.48 2.16 -1.46 2.22 -1.61 4.53 -0.41 6.86 0.35 0.70 0.65 1.61 0.65 2 0 0.65 -0.07 0.74 -0.59 0.74 -0.35 0.02 -2.09 -0.70 -3.92 -1.57 l-3.29 -1.59 -0.20 -0.98 c-0.09 -0.54 -0.17 -2.55 -0.17 -4.46 0.02 -2.66 0.11 -3.81 0.41 -4.88 1.02 -3.68 3.18 -6.40 6.16 -7.79 1.59 -0.76 1.85 -0.81 4.35 -0.89 2.24 -0.09 2.87 -0.02 4.14 0.35 3.59 1.11 6.47 4.59 7.90 9.62 0.65 2.29 0.85 7.23 0.35 9.78 -0.37 2.05 -1.28 4.16 -2.33 5.46 -0.63 0.78 -0.78 0.87 -1.70 0.85 -0.54 0 -2.44 -0.46 -4.20 -1z"/>
 </g>
 <g fill="#000000">
  <path d="M142.49 225.44 c-3.88 -0.72 -7.10 -2.50 -9.03 -5.01 -0.89 -1.18 -2.39 -3.92 -2.39 -4.40 0 -0.15 -0.37 -0.37 -0.81 -0.48 -1.57 -0.41 -8.45 -1.31 -11.93 -1.57 -3.53 -0.24 -4.46 -0.22 -12.63 0.37 -2.50 0.17 -7.16 0.39 -10.34 0.50 -5.31 0.17 -5.94 0.22 -7.99 0.78 -2.18 0.59 -2.24 0.63 -2.76 1.52 -1.50 2.55 -4.11 4.94 -6.81 6.23 -2.26 1.07 -4.40 1.52 -7.36 1.52 -3.09 0.02 -4.99 -0.28 -11.76 -1.87 -2.74 -0.65 -7.32 -1.72 -10.12 -2.37 -2.81 -0.65 -8.73 -2.02 -13.17 -3.07 -4.42 -1.02 -10.17 -2.37 -12.74 -2.96 -2.68 -0.63 -5.27 -1.35 -6.03 -1.72 -1.76 -0.81 -3.31 -2.26 -4.22 -3.98 -0.63 -1.18 -0.74 -1.59 -0.81 -3.31 -0.09 -1.83 -0.02 -2.16 0.81 -4.72 2 -6.12 2 -7.82 0.02 -15.85 -0.83 -3.35 -0.91 -4.25 -0.65 -5.66 0.30 -1.65 1 -2.98 2.18 -4.14 1.79 -1.81 3.66 -2.42 8.90 -2.94 1.85 -0.17 3.74 -0.44 4.25 -0.57 2.37 -0.65 4.25 -2.16 6.81 -5.57 1.59 -2.09 2.48 -3.59 4.05 -6.73 l1.22 -2.42 -0.50 -1.39 c-0.70 -1.94 -0.85 -3.20 -0.57 -4.81 0.39 -2.09 1.13 -3.77 4.11 -9.10 3.07 -5.49 4.68 -9.06 7.23 -15.89 4.48 -12.02 7.58 -17.44 15.33 -27.10 6.84 -8.49 8.51 -11.04 9.67 -14.80 0.94 -2.96 0.89 -4.75 -0.41 -16.98 -1.46 -13.56 -1.39 -22.38 0.22 -32.66 1.37 -8.80 6.10 -15.13 14.02 -18.85 4.18 -1.96 9.34 -3.27 14.06 -3.57 7.90 -0.50 17.29 2.22 23.36 6.77 5.88 4.42 10.73 12.21 12.91 20.70 1.31 5.09 1.44 6.53 1.61 15.85 0.15 7.55 0.22 8.99 0.61 10.84 2.02 9.56 6.10 18.44 12.41 27.15 0.91 1.26 3.66 4.88 6.10 8.06 7.14 9.34 11.10 15.61 14.39 22.90 4.09 8.99 6.14 15.89 6.53 21.99 0.33 4.96 -0.17 8.84 -1.63 13.02 l-0.74 2.16 1.09 1.02 c2.05 1.89 3.03 4.92 2.61 8.03 -0.37 2.81 -0.28 3.61 0.54 5.27 1.44 2.87 5.55 6.66 10.36 9.49 2.44 1.42 3.66 2.55 4.48 4.11 0.54 1.04 0.61 1.37 0.61 3.33 0 2.02 -0.04 2.26 -0.70 3.51 -0.87 1.68 -1.55 2.48 -3.09 3.66 -1.44 1.09 -4.11 2.96 -4.25 2.96 -0.04 0 -1.35 0.81 -2.90 1.79 -1.52 0.96 -3.07 1.94 -3.44 2.13 -0.87 0.50 -12.30 7.58 -13.76 8.51 -0.96 0.63 -5.31 3.33 -6.71 4.18 -0.22 0.15 -1.07 0.65 -1.85 1.15 -5.40 3.40 -7.69 4.46 -10.71 4.99 -2.18 0.39 -5.60 0.39 -7.69 0z m7.21 -3.81 c3.07 -0.76 2.42 -0.39 27.19 -15.78 14.98 -9.30 15.72 -9.82 16.70 -12.04 0.70 -1.57 0.04 -3.27 -1.70 -4.42 -0.46 -0.30 -2.11 -1.39 -3.68 -2.42 -5.03 -3.33 -7.95 -6.27 -9.62 -9.71 -0.81 -1.65 -0.83 -1.70 -0.81 -4.29 0 -1.44 0.02 -3.16 0.07 -3.83 0.04 -0.89 -0.07 -1.50 -0.44 -2.24 -0.46 -0.98 -1.98 -2.53 -2.48 -2.53 -0.13 0 -0.41 0.37 -0.63 0.83 -0.87 1.85 -2.07 3.53 -3.72 5.25 -2.72 2.85 -5.46 4.48 -8.62 5.14 -1.81 0.39 -5.79 0.44 -7.42 0.09 -2.96 -0.63 -5.40 -2.37 -6.73 -4.83 -0.74 -1.35 -0.74 -1.37 -0.74 -4.22 l0 -2.90 -1.42 -0.57 c-1.74 -0.70 -2.85 -0.59 -4.18 0.41 -1.52 1.15 -1.85 2.11 -2.24 6.36 -1 10.91 -2.68 22.92 -4.79 34.44 -0.89 4.88 -0.96 5.46 -0.76 6.68 0.74 4.16 2.46 7.16 5.05 8.86 3.07 1.96 7.34 2.63 10.97 1.72z m-76.72 -0.67 c2.11 -0.44 4.70 -1.85 6.29 -3.44 2.85 -2.85 3.98 -6.38 3.16 -9.86 -0.61 -2.57 -1.42 -4.01 -8.34 -14.48 -2.11 -3.22 -5.05 -7.69 -6.55 -9.97 -10.89 -16.57 -12.84 -19.27 -16.44 -22.66 -1.85 -1.74 -3.79 -3.05 -4.72 -3.16 -2.24 -0.26 -3.31 0.67 -5.33 4.64 -2.24 4.40 -3.98 6.92 -6.64 9.58 -1.89 1.92 -2.57 2.44 -3.81 3 -1.94 0.87 -2.72 1.02 -6.73 1.42 -4.07 0.39 -5.83 0.89 -7.03 2 -1.57 1.44 -1.59 1.98 -0.52 6.88 1.20 5.46 1.33 6.38 1.33 8.97 -0.02 2.74 -0.37 4.70 -1.52 8.27 -0.96 3.05 -1 3.74 -0.22 5.01 1.33 2.16 2.31 2.55 12.84 5.01 4.96 1.15 12.95 3.03 17.74 4.14 8.82 2.07 19.79 4.57 20.79 4.75 1.13 0.20 4.59 0.15 5.70 -0.09z m30.26 -16.85 c4.77 -0.54 9.19 -1.68 13.72 -3.51 5.55 -2.22 9.75 -4.94 13.93 -8.99 l2.13 -2.09 0.74 -5.55 c0.41 -3.05 1 -7.99 1.33 -10.99 0.30 -2.98 0.63 -6.10 0.74 -6.90 0.39 -2.92 1.96 -5.16 4.51 -6.40 1.20 -0.59 1.46 -0.63 3.79 -0.63 l2.50 0 0.37 -1.85 c1.28 -6.36 0.85 -15.96 -1.15 -25.69 -1.37 -6.57 -1.83 -7.79 -6.44 -17.09 -3.57 -7.18 -4.81 -10.10 -6.88 -16.13 -2 -5.79 -3.05 -8.16 -5.88 -13.13 -0.85 -1.48 -1.81 -3.55 -2.16 -4.57 -0.91 -2.76 -1.50 -4.16 -1.74 -4.16 -0.13 0 -0.57 0.28 -0.96 0.65 -1.04 0.91 -2.24 1.48 -4.77 2.29 -1.85 0.59 -2.70 1.02 -5.55 2.92 -6.53 4.31 -10.62 5.75 -15.44 5.38 -4.20 -0.30 -5.73 -1.07 -9.62 -4.83 -1.65 -1.57 -3.90 -3.57 -5.03 -4.40 l-2.02 -1.52 -0.11 6.27 -0.11 6.27 -1.02 1.26 c-4.55 5.68 -6.88 10.15 -9.95 19.07 -2.11 6.14 -3.03 8.25 -5.36 12.26 -4.27 7.36 -6.71 14.39 -7.97 22.86 -0.50 3.44 -0.54 8.34 -0.09 11.76 0.28 2.16 0.37 2.44 0.91 2.92 0.33 0.28 1.74 1.52 3.11 2.76 3.31 2.94 9.30 7.86 14.78 12.17 5.55 4.31 7.16 5.81 8.08 7.53 1.81 3.40 0.63 7.16 -2.74 8.82 -0.65 0.33 -1.15 0.63 -1.13 0.72 0.04 0.07 1 1.55 2.13 3.29 2.53 3.81 3.46 5.38 4.27 6.99 l0.59 1.24 1.72 0.37 c4.51 0.96 11.69 1.24 16.76 0.65z m52.45 -45.61 c1.15 -1.94 2.87 -5.81 3.66 -8.23 1.87 -5.73 2.44 -12.98 1.44 -18.24 -1.20 -6.34 -5.01 -12.65 -10.23 -17.02 -3.07 -2.55 -7.42 -5.01 -7.95 -4.48 -0.39 0.39 0.41 1.13 3.11 2.96 3.18 2.13 7.34 6.16 9.06 8.71 3.31 4.99 4.81 9.88 4.81 15.83 0 5.77 -1.24 11.12 -4.16 17.83 -1.28 2.98 -1.57 4.18 -0.96 4.18 0.17 0 0.72 -0.67 1.22 -1.52z m-55.45 -74.13 c2.50 -0.52 5.01 -1.79 10.19 -5.16 2.44 -1.57 3.40 -2.07 5.31 -2.68 1.28 -0.41 2.72 -1 3.22 -1.28 2.53 -1.48 4.48 -5.03 3.83 -6.94 -0.24 -0.74 -1.94 -2.55 -2.39 -2.55 -0.11 0 -0.22 -0.24 -0.22 -0.54 0 -0.39 0.11 -0.54 0.39 -0.54 1.02 0 2.90 -3.44 3.46 -6.34 0.44 -2.37 0.28 -6.16 -0.37 -8.47 -1 -3.51 -3 -6.73 -5.18 -8.27 -2.79 -2 -6.64 -2.31 -9.91 -0.81 -2.98 1.39 -5.16 4.11 -6.16 7.79 -0.67 2.44 -0.50 9.12 0.26 9.12 0.17 0 0.30 0.11 0.30 0.24 0 0.20 -0.37 0.20 -1.35 0.07 -0.76 -0.11 -3.13 -0.17 -5.29 -0.15 -3.33 0.04 -3.85 0 -3.53 -0.24 0.59 -0.46 0.76 -5.46 0.28 -7.75 -0.48 -2.29 -1.83 -4.90 -3.27 -6.36 -1.52 -1.55 -2.85 -2.20 -4.77 -2.31 -2.02 -0.13 -3.11 0.33 -4.48 1.83 -2.94 3.22 -3.74 10.45 -1.83 16.52 1 3.18 2.61 5.83 3.24 5.31 0.24 -0.20 0.30 -0.15 0.30 0.30 0 0.39 -0.33 0.83 -1.20 1.57 -1.37 1.18 -2.50 2.79 -2.50 3.53 0 0.74 2.70 3.37 5.03 4.92 3.64 2.42 6.40 3.29 10.32 3.29 5.73 0 11.58 -2.31 19.90 -7.86 l4.05 -2.70 1.20 0.07 1.20 0.07 0 1.31 0 1.28 -1.46 1.11 c-3.44 2.55 -8.95 5.83 -12.32 7.32 -5.36 2.35 -10.69 3.24 -15.61 2.61 -0.72 -0.11 -1.33 -0.17 -1.35 -0.15 -0.02 0.02 0.52 0.50 1.20 1.07 1.13 0.94 2.81 1.70 4.40 1.96 1.24 0.22 3.68 0.13 5.09 -0.17z"/>
  <path d="M88.87 63.09 c-0.15 -0.15 -0.26 -0.63 -0.26 -1.11 l0 -0.85 -0.91 0.67 c-0.87 0.65 -2.20 0.94 -2.07 0.44 0.02 -0.11 -0.33 -0.35 -0.81 -0.52 -1.13 -0.39 -2.42 -1.70 -3.13 -3.16 -0.54 -1.09 -0.59 -1.42 -0.59 -3.81 0 -2.39 0.04 -2.70 0.54 -3.57 0.70 -1.24 1.46 -1.79 2.68 -1.92 1.83 -0.22 3.51 1.22 4.42 3.77 0.50 1.42 0.50 4.62 0 5.94 -0.20 0.52 -0.35 0.98 -0.35 1.02 0 0.20 1.13 -0.15 2.18 -0.65 1.24 -0.59 2.57 -0.72 3.29 -0.35 0.30 0.17 0.41 0.46 0.41 1.20 0 1.09 -0.02 1.11 -2 2.29 -1.52 0.91 -2.85 1.15 -3.40 0.61z"/>
  <path d="M111.58 62.79 c-1.98 -0.59 -3.13 -1.22 -3.59 -1.98 l-0.41 -0.72 0.65 0.35 c0.37 0.17 0.65 0.26 0.61 0.15 -0.04 -0.09 -0.37 -0.76 -0.72 -1.46 -1.68 -3.35 -0.57 -8.03 2.29 -9.58 3.40 -1.85 7.16 0.52 7.79 4.92 0.48 3.35 -0.89 6.27 -3.57 7.62 -0.81 0.44 -0.83 0.46 -0.37 0.63 0.26 0.11 0.48 0.24 0.48 0.30 0 0.22 -2.09 0.07 -3.16 -0.24z"/>
  <path d="M100.91 62.20 c-0.72 -0.39 -1.55 -0.78 -1.85 -0.91 -0.44 -0.17 -0.57 -0.39 -0.61 -1.15 -0.09 -1.28 0.20 -1.57 1.57 -1.57 1.46 0 2.87 0.48 3.90 1.33 0.70 0.57 0.81 0.78 0.81 1.59 0 0.50 -0.11 1.02 -0.26 1.18 -0.48 0.48 -2.16 0.26 -3.55 -0.46z"/>
 </g>
 <g fill="#fec703">
  <path d="M143.06 222.48 c-5.92 -1.15 -9.14 -4.75 -10.08 -11.19 -0.24 -1.74 -0.22 -1.96 0.78 -7.47 0.98 -5.38 1.42 -7.99 2.63 -16.05 0.61 -4.01 1.68 -13.11 2.18 -18.51 0.39 -4.16 0.70 -5.12 2.02 -6.20 1.55 -1.26 3.66 -1.44 5.92 -0.48 1.33 0.57 1.42 0.65 1.35 1.24 -0.04 0.37 -0.09 1.63 -0.11 2.83 -0.04 2.09 -0.02 2.22 0.70 3.53 3.11 5.75 11.80 6.84 18.44 2.29 2.53 -1.72 5.18 -4.83 6.71 -7.82 0.48 -0.98 0.67 -1.15 1.20 -1.15 0.70 0 2.16 0.98 2.79 1.89 0.83 1.20 1.04 2.07 0.96 3.88 -0.24 4.92 -0.17 5.53 0.70 7.34 1.68 3.46 4.62 6.40 9.73 9.78 4.33 2.83 4.70 3.13 5.20 4.18 0.87 1.79 0.48 3.92 -1.04 5.64 -0.98 1.13 -3.77 2.96 -15.59 10.30 -24.78 15.39 -24.12 15.02 -27.19 15.78 -1.85 0.46 -5.44 0.57 -7.29 0.20z"/>
  <path d="M68.25 221.82 c-1.98 -0.15 -6.14 -1.04 -22.42 -4.88 -4.79 -1.11 -12.78 -2.98 -17.74 -4.14 -5.66 -1.33 -9.47 -2.33 -10.21 -2.68 -0.63 -0.33 -1.55 -1 -2 -1.52 -1.57 -1.79 -1.65 -3.24 -0.39 -7.16 1.96 -6.12 1.96 -8.01 0.09 -16.33 -0.85 -3.72 -0.94 -5.22 -0.35 -6.49 0.87 -1.94 2.92 -2.79 7.97 -3.27 4.03 -0.39 4.81 -0.54 6.75 -1.42 1.24 -0.57 1.92 -1.09 3.81 -3 2.66 -2.66 4.40 -5.18 6.64 -9.58 1.87 -3.66 2.70 -4.48 4.75 -4.70 2.29 -0.26 3.81 0.52 6.84 3.42 3.42 3.29 5.51 6.16 16.22 22.47 1.50 2.29 4.44 6.75 6.55 9.97 8.43 12.78 8.80 13.52 8.60 18.16 -0.09 2.11 -0.15 2.35 -1.04 4.14 -1.52 3.11 -4.14 5.36 -7.51 6.49 -1.44 0.48 -4.11 0.70 -6.53 0.52z"/>
  <path d="M94.49 85.19 c-1.89 -0.30 -3.29 -1 -5.01 -2.48 -0.96 -0.85 -1.72 -1.65 -1.68 -1.79 0.11 -0.33 1.07 -0.30 4.25 0.07 6.40 0.76 13.41 -1.57 22.64 -7.51 1.09 -0.72 2.66 -1.81 3.48 -2.39 1.22 -0.94 1.46 -1.22 1.46 -1.74 0 -1.28 -0.76 -1 -5.14 1.92 -6.01 4.01 -10.38 6.14 -14.98 7.29 -1.98 0.50 -2.76 0.57 -5.57 0.57 -3.53 0.02 -5.14 -0.30 -7.86 -1.50 -3.29 -1.46 -7.97 -5.38 -8.25 -6.92 -0.35 -1.79 1.35 -3.88 5.51 -6.81 1.28 -0.89 2.31 -1.74 2.29 -1.85 -0.04 -0.11 0.07 -0.20 0.24 -0.20 0.17 0 0.81 -0.39 1.42 -0.87 0.61 -0.48 1.18 -0.87 1.28 -0.87 0.11 0 0.44 -0.20 0.72 -0.41 0.63 -0.48 1.63 -1.09 3.13 -1.89 1 -0.54 1.33 -0.59 4.38 -0.70 2.13 -0.07 3.68 -0.02 4.38 0.15 0.57 0.13 3.05 1.22 5.51 2.42 3.77 1.83 5.20 2.39 9.25 3.64 2.63 0.81 4.90 1.52 5.01 1.61 1.15 0.87 2.31 2.11 2.53 2.74 0.61 1.85 -0.28 4.83 -2 6.71 -1.24 1.35 -2.29 1.92 -5.07 2.83 -1.92 0.61 -2.87 1.11 -5.31 2.68 -7.05 4.57 -9.43 5.51 -13.87 5.44 -1.20 0 -2.42 -0.07 -2.72 -0.11z m-2.87 -23.36 c0.81 -0.48 1.59 -0.96 1.74 -1.09 0.39 -0.35 0.33 -0.83 -0.20 -1.11 -0.59 -0.30 -2.11 0.24 -3.16 1.15 -0.76 0.67 -0.91 1.22 -0.48 1.65 0.37 0.37 0.48 0.35 2.09 -0.61z m12.32 -0.07 c0.20 -0.35 0.11 -0.52 -0.59 -1.13 -0.85 -0.74 -2.44 -1.42 -3.33 -1.42 -0.63 0 -1.11 0.59 -0.83 1 0.11 0.20 0.74 0.54 1.42 0.83 0.65 0.26 1.44 0.65 1.74 0.85 0.63 0.46 1.26 0.39 1.59 -0.13z"/>
 </g>
</svg>